<svg xmlns="http://www.w3.org/2000/svg" viewBox="0 0 848.76 325.65"><defs><style>.cls-1{fill:none;}.cls-2{fill:#ed1c24;}</style></defs><g id="Layer_2" data-name="Layer 2"><g id="Layer_1-2" data-name="Layer 1"><rect class="cls-1" width="848.76" height="325.65"/><path class="cls-2" d="M227.88,163.25a57,57,0,0,1-104,32.14l-34,58.9H57l52.56-91h32.89a28.49,28.49,0,1,0,28.49-28.48H57l16.45-28.49h97.49A57,57,0,0,1,227.88,163.25Z"/><path class="cls-2" d="M386.76,106.28a57,57,0,1,0,57,57A57,57,0,0,0,386.76,106.28Zm0,85.46a28.49,28.49,0,1,1,28.48-28.49A28.5,28.5,0,0,1,386.76,191.74Z"/><path class="cls-2" d="M734.82,106.08a57,57,0,1,0,57,57A57,57,0,0,0,734.82,106.08Zm0,85.45a28.49,28.49,0,1,1,28.49-28.48A28.48,28.48,0,0,1,734.82,191.53Z"/><path class="cls-2" d="M576.08,163.25v56.12H547.6V163.25a28.49,28.49,0,0,0-57,0v56.12H462.14V163.25a57,57,0,0,1,113.94,0Z"/><path class="cls-2" d="M654.57,107.14h23.28l-16,27.63H638.62s-7,8.55-8.81,13.47c-1.17,3.18-3.23,10-3.23,15a28.5,28.5,0,0,0,28.49,28.49v28.48a57,57,0,0,1-56.85-53.17c-.08-1.25-.12-2.52-.12-3.8a56.66,56.66,0,0,1,7.14-27.63h0c.15-.28.31-.56.47-.84H583.86l15.95-27.63H621.4l29-50.17h33.18Z"/><path class="cls-2" d="M329.79,113.91l-14.25,24.67a28.49,28.49,0,0,0-42.72,24.67v56.12H244.33V163.25a57,57,0,0,1,85.46-49.34Z"/><line class="cls-2" x1="677.85" y1="107.14" x2="661.9" y2="134.77"/></g></g></svg>