<svg xmlns="http://www.w3.org/2000/svg" viewBox="0 0 100 100"><defs><style>.cls-1{fill:#ed2902;}.cls-2{fill:#fff;}</style></defs><g id="Layer_2" data-name="Layer 2"><g id="Layer_1-2" data-name="Layer 1"><rect class="cls-1" width="100" height="100" rx="11"/><path class="cls-2" d="M61.21,54a4.14,4.14,0,0,0,4.56,5.39A6.14,6.14,0,0,0,70,57.94a6.53,6.53,0,0,0,2-4l1.26-7.81a6.73,6.73,0,0,0,.09-1h9c0,.31-.08.63-.13,1L81,54a15,15,0,0,1-2.85,6.92,15.18,15.18,0,0,1-5.73,4.62,18.27,18.27,0,0,1-7.92,1.65,15,15,0,0,1-7.35-1.65,9.49,9.49,0,0,1-4.26-4.62A12.44,12.44,0,0,1,52.21,54l1.26-7.81a15.74,15.74,0,0,1,2.88-6.93,15.16,15.16,0,0,1,5.73-4.62A18.32,18.32,0,0,1,70,33H88.9l-1.26,7.79H68.71a6.25,6.25,0,0,0-4.2,1.38,6.38,6.38,0,0,0-2,4Z"/><path class="cls-2" d="M48.62,45.84l-1.38,8.4a17.58,17.58,0,0,1-2.43,6.81,13.34,13.34,0,0,1-4.53,4.5,11.72,11.72,0,0,1-6.06,1.59c-2.72,0-4.73-.78-6-2.36a7,7,0,0,1-1.46-4.54H26.6l-2.46,17.1h-9l3.72-23.4,1.39-8.75h9l-1.42,8.75h0a4.79,4.79,0,0,0,.75,4,4.45,4.45,0,0,0,3.63,1.41,5.85,5.85,0,0,0,4.08-1.41,6.61,6.61,0,0,0,2-4l1.26-7.81a4.91,4.91,0,0,0-.72-4,4.48,4.48,0,0,0-3.66-1.38H12L13.2,33H39.68q5,0,7.41,3.5T48.62,45.84Z"/></g></g></svg>