<svg xmlns="http://www.w3.org/2000/svg" viewBox="0 0 734.82 197.32"><defs><style>.cls-1{fill:#fff;}</style></defs><g id="Layer_2" data-name="Layer 2"><g id="Layer_1-2" data-name="Layer 1"><path class="cls-1" d="M170.91,106.28a57,57,0,0,1-104,32.14l-34,58.9H0l52.56-91H85.45A28.49,28.49,0,1,0,113.94,77.8H0L16.45,49.31h97.49A57,57,0,0,1,170.91,106.28Z"/><path class="cls-1" d="M329.79,49.31a57,57,0,1,0,57,57A57,57,0,0,0,329.79,49.31Zm0,85.46a28.49,28.49,0,1,1,28.48-28.49A28.49,28.49,0,0,1,329.79,134.77Z"/><path class="cls-1" d="M677.85,49.11a57,57,0,1,0,57,57A57,57,0,0,0,677.85,49.11Zm0,85.45a28.48,28.48,0,1,1,28.49-28.48A28.48,28.48,0,0,1,677.85,134.56Z"/><path class="cls-1" d="M519.11,106.28V162.4H490.63V106.28a28.49,28.49,0,0,0-57,0V162.4H405.17V106.28a57,57,0,0,1,113.94,0Z"/><path class="cls-1" d="M597.6,50.17h23.28l-16,27.63H581.65s-7,8.55-8.81,13.47c-1.17,3.18-3.23,10-3.23,15a28.5,28.5,0,0,0,28.49,28.49v28.48a56.93,56.93,0,0,1-56.84-53.17c-.09-1.25-.13-2.52-.13-3.8a56.66,56.66,0,0,1,7.14-27.63h0c.15-.28.31-.56.47-.84H526.89l16-27.63h21.59L593.39,0h33.18Z"/><path class="cls-1" d="M272.82,56.94,258.57,81.61a28.49,28.49,0,0,0-42.72,24.67V162.4H187.36V106.28a57,57,0,0,1,85.46-49.34Z"/><line class="cls-1" x1="620.88" y1="50.17" x2="604.93" y2="77.8"/></g></g></svg>