<svg xmlns="http://www.w3.org/2000/svg" viewBox="0 0 231.75 70.8"><defs><style>.cls-1{fill:#ed2902;}.cls-2{fill:none;}</style></defs><g id="Layer_2" data-name="Layer 2"><g id="Layer_1-2" data-name="Layer 1"><path class="cls-1" d="M79,21.6q-2.49-3.29-8-3.29A10.75,10.75,0,0,0,63.38,21a11.15,11.15,0,0,0-2.76,4.2h-.1l1-6.3H53.14l-5.22,33h9l3.24-20.4a7,7,0,0,1,2-4.19,5.83,5.83,0,0,1,4.17-1.5A4.49,4.49,0,0,1,70,27.31a5.11,5.11,0,0,1,.81,4.19l-.36,2.1h9.61l.42-2.7Q81.46,24.92,79,21.6Z"/><path class="cls-1" d="M113.05,24.57A9.62,9.62,0,0,0,108.79,20a15.1,15.1,0,0,0-7.41-1.64A18.32,18.32,0,0,0,93.49,20a15.16,15.16,0,0,0-5.73,4.62,15.74,15.74,0,0,0-2.88,6.93l-1.26,7.81a12.44,12.44,0,0,0,.69,6.92,9.49,9.49,0,0,0,4.26,4.62,15,15,0,0,0,7.35,1.65,18.27,18.27,0,0,0,7.92-1.65,15.18,15.18,0,0,0,5.73-4.62,15,15,0,0,0,2.85-6.92l1.26-7.81A12.14,12.14,0,0,0,113.05,24.57Zm-8.37,6.93-1.26,7.81a6.53,6.53,0,0,1-2,4,6.14,6.14,0,0,1-4.23,1.41,4.7,4.7,0,0,1-3.78-1.41,4.72,4.72,0,0,1-.78-4l1.26-7.81a6.4,6.4,0,0,1,2-4,6.25,6.25,0,0,1,4.2-1.38,4.74,4.74,0,0,1,3.81,1.38A4.84,4.84,0,0,1,104.68,31.5Z"/><path class="cls-1" d="M147.66,21.66q-2.37-3.35-7.17-3.35a10.16,10.16,0,0,0-6.87,2.39,10,10,0,0,0-3,4.5h-.2l1-6.3h-8.7l-5.22,33h9l3.24-20.4a6.69,6.69,0,0,1,1.95-4,5.58,5.58,0,0,1,3.93-1.42,4.36,4.36,0,0,1,3.6,1.42,4.87,4.87,0,0,1,.72,4l-3.24,20.4h9l3.36-21.3Q150,25,147.66,21.66Z"/><path class="cls-1" d="M171.82,27h12.3l1.26-8.1h-12.3l1.73-10.8h-9l-1.73,10.8h-8.7L154.12,27h8.7L160.6,41.1q-.78,5,1.62,7.92t7.44,2.88h9.9l1.26-8.09h-9c-1.8,0-2.54-.91-2.22-2.71Z"/><path class="cls-1" d="M197.22,39.32a4.72,4.72,0,0,0,.78,4,4.7,4.7,0,0,0,3.78,1.41A6.14,6.14,0,0,0,206,43.3a6.53,6.53,0,0,0,2-4l1.26-7.81a6.73,6.73,0,0,0,.09-1h9c0,.31-.08.63-.13,1L217,39.32a15,15,0,0,1-2.85,6.92,15.18,15.18,0,0,1-5.73,4.62,18.27,18.27,0,0,1-7.92,1.65,15,15,0,0,1-7.35-1.65,9.49,9.49,0,0,1-4.26-4.62,12.44,12.44,0,0,1-.69-6.92l1.26-7.81a15.74,15.74,0,0,1,2.88-6.93A15.16,15.16,0,0,1,198.09,20,18.32,18.32,0,0,1,206,18.32h18.93l-1.26,7.79H204.72a6.25,6.25,0,0,0-4.2,1.38,6.38,6.38,0,0,0-2,4Z"/><path class="cls-1" d="M43.52,31.2l-1.38,8.4a17.58,17.58,0,0,1-2.43,6.81,13.34,13.34,0,0,1-4.53,4.5,11.72,11.72,0,0,1-6.06,1.59c-2.72,0-4.73-.78-6-2.36a7,7,0,0,1-1.46-4.54H21.5L19,62.7H10l3.72-23.4,1.39-8.76h9L22.76,39.3h0a4.79,4.79,0,0,0,.75,4,4.45,4.45,0,0,0,3.63,1.41,5.85,5.85,0,0,0,4.08-1.41,6.61,6.61,0,0,0,2-4l1.26-7.81a4.91,4.91,0,0,0-.72-4,4.48,4.48,0,0,0-3.66-1.38H6.86L8.1,18.31H34.58q5,0,7.41,3.5T43.52,31.2Z"/><rect class="cls-2" width="231.75" height="70.8"/></g></g></svg>